<?xml version="1.0" standalone="no"?>
<!DOCTYPE svg PUBLIC "-//W3C//DTD SVG 20010904//EN"
 "http://www.w3.org/TR/2001/REC-SVG-20010904/DTD/svg10.dtd">
<svg version="1.0" xmlns="http://www.w3.org/2000/svg"
 width="350.000000pt" height="350.000000pt" viewBox="0 0 350.000000 350.000000"
 preserveAspectRatio="xMidYMid meet">
<metadata>
Created by potrace 1.14, written by Peter Selinger 2001-2017
</metadata>
<g transform="translate(0.000000,350.000000) scale(0.100000,-0.100000)"
fill="#000000" stroke="none">
<path d="M1119 3405 c-25 -13 -51 -31 -58 -39 -7 -9 -18 -13 -24 -9 -5 3 -7 1
-3 -5 3 -6 -9 -26 -28 -46 -18 -20 -32 -36 -30 -36 3 0 -9 -26 -25 -58 -21
-41 -40 -63 -68 -79 -50 -28 -110 -88 -117 -119 -9 -33 10 -64 37 -64 44 0 93
52 81 84 -9 22 -37 21 -30 -1 3 -10 1 -25 -4 -33 -5 -8 -10 -11 -10 -6 0 5 -7
3 -15 -4 -13 -10 -18 -11 -28 -1 -9 10 -8 15 6 26 10 7 19 17 20 22 1 4 6 7
10 5 5 -1 6 2 3 7 -6 9 58 71 73 71 4 0 6 -25 3 -55 -3 -34 -1 -55 6 -55 6 0
28 29 51 64 22 35 45 67 51 71 18 11 0 25 -31 25 -16 0 -29 3 -29 8 0 19 64
115 102 154 57 57 107 81 153 72 40 -7 88 -41 79 -55 -3 -5 0 -8 8 -7 8 2 14
-8 16 -26 5 -41 -7 -98 -19 -91 -5 4 -8 3 -7 -2 5 -16 -41 -65 -53 -57 -7 4
-9 3 -5 -4 8 -14 -30 -36 -50 -28 -8 3 -14 18 -14 34 0 38 -28 132 -40 132 -5
0 -17 -17 -26 -37 -14 -34 -14 -44 -1 -90 10 -37 11 -54 3 -57 -8 -3 -8 -7 0
-13 14 -10 24 -63 13 -63 -5 0 -9 3 -9 8 0 4 -10 7 -22 8 -13 0 -38 4 -55 8
-35 8 -49 -12 -15 -21 16 -4 13 -9 -17 -42 -20 -21 -42 -46 -50 -55 -7 -10
-20 -15 -29 -11 -9 3 -14 3 -10 0 3 -3 -15 -26 -41 -50 -85 -80 -125 -197 -85
-253 23 -33 60 -28 101 13 29 29 34 40 31 72 -2 31 -7 39 -26 41 -32 5 -54
-16 -50 -47 3 -34 -11 -59 -23 -40 -21 34 9 154 44 176 6 4 7 1 2 -8 -5 -8 -4
-11 1 -6 5 5 9 12 9 16 0 8 59 61 66 61 2 0 2 -30 1 -66 -3 -57 -1 -69 19 -90
12 -13 32 -24 44 -24 23 0 71 32 93 62 7 10 18 15 24 12 6 -4 8 -2 4 4 -6 11
12 62 23 62 3 0 7 16 9 36 4 60 13 65 52 33 14 -11 19 -18 13 -14 -7 3 -13 4
-13 1 0 -3 15 -12 34 -21 23 -11 34 -23 33 -36 -2 -24 -17 -25 -17 -1 -1 15
-2 15 -13 2 -12 -16 -14 -16 -72 -18 -45 -2 -50 -32 -6 -32 17 0 33 -5 36 -10
4 -6 10 -8 15 -5 12 7 60 -16 54 -26 -3 -5 3 -6 12 -2 13 5 15 3 9 -7 -5 -9
-4 -11 4 -6 14 9 43 -12 35 -25 -3 -5 -10 -9 -15 -9 -6 0 -8 4 -5 9 5 8 -22 8
-31 1 -2 -2 -6 -3 -10 -4 -28 -8 -63 -31 -63 -43 0 -8 -5 -11 -11 -7 -7 4 -9
0 -5 -13 4 -13 -6 -45 -28 -89 -37 -73 -39 -88 -6 -59 28 25 33 15 7 -15 -77
-89 -208 -157 -247 -128 -12 7 -10 9 7 5 12 -3 32 2 44 11 18 12 21 12 14 1
-4 -8 -4 -11 0 -6 14 12 16 82 4 113 -7 16 -12 32 -11 36 1 4 -9 7 -22 6 -14
-1 -22 -6 -20 -10 3 -5 -2 -11 -10 -14 -19 -7 -21 -30 -3 -38 6 -4 2 -4 -10
-2 -13 2 -26 -1 -30 -6 -4 -7 -1 -8 7 -3 10 6 12 4 7 -9 -4 -10 -7 -24 -7 -32
0 -9 -5 -12 -10 -9 -6 4 -8 11 -4 16 3 6 -4 13 -16 16 -17 4 -19 8 -8 15 10 8
10 9 -2 5 -8 -2 -15 -8 -15 -13 0 -18 -17 -34 -28 -28 -7 4 -9 4 -5 -1 4 -4 2
-17 -3 -28 -9 -16 -13 -17 -20 -6 -6 10 -8 6 -7 -11 1 -14 8 -34 15 -45 7 -11
13 -24 13 -30 -1 -5 -7 1 -15 15 -11 19 -14 21 -15 8 0 -10 -8 -18 -17 -18
-24 -1 -63 -34 -63 -55 0 -10 -5 -14 -12 -10 -7 4 -6 1 3 -7 22 -19 31 -49 19
-63 -8 -10 -8 -15 1 -21 8 -4 9 -3 5 4 -4 7 -3 12 2 12 12 0 25 -67 16 -82 -4
-6 -3 -8 4 -4 6 4 12 -3 14 -16 2 -15 10 -23 24 -24 16 -1 20 3 17 17 -3 11
-1 19 3 19 5 0 7 32 6 71 -3 45 0 69 6 65 6 -3 8 -16 5 -29 -4 -20 -3 -20 9
-5 12 14 14 9 16 -40 3 -59 -7 -100 -41 -172 -20 -43 -30 -140 -14 -140 4 0 7
-24 7 -52 0 -41 -3 -49 -11 -38 -9 12 -10 11 -6 -8 3 -12 1 -20 -4 -16 -5 3
-9 12 -9 20 0 8 -4 14 -10 14 -15 0 -12 -59 4 -75 7 -8 17 -11 21 -7 4 4 4
-13 0 -38 -11 -64 -45 -194 -54 -200 -10 -8 -5 -41 14 -84 9 -21 14 -45 11
-53 -3 -8 -2 -11 4 -8 5 3 12 -10 15 -29 4 -19 18 -44 31 -57 24 -22 33 -46
14 -34 -5 3 -10 4 -10 1 0 -3 10 -10 22 -17 19 -10 20 -9 14 7 -4 11 16 -3 43
-31 49 -47 68 -71 36 -45 -12 10 -16 9 -21 -5 -6 -15 -14 -9 -50 31 -33 38
-46 46 -53 35 -4 -7 -6 -23 -3 -35 5 -19 4 -20 -14 -6 -17 14 -18 13 -7 -1 9
-10 12 -40 9 -87 -3 -53 0 -74 10 -83 8 -6 14 -8 14 -4 0 4 7 2 15 -5 10 -8
29 -10 52 -7 23 4 43 2 52 -6 12 -9 13 -9 7 1 -5 8 1 12 19 12 22 0 26 3 20
18 -5 9 -8 25 -9 34 0 9 -4 14 -8 12 -4 -3 -8 5 -8 16 0 17 4 21 18 15 14 -5
15 -4 5 6 -10 10 -16 10 -25 1 -9 -9 -16 -8 -29 4 -21 19 -14 51 7 33 8 -6 14
-8 14 -4 0 5 9 0 21 -11 21 -19 64 -94 59 -104 -1 -3 -6 -13 -12 -24 -8 -14
-7 -17 4 -13 7 2 22 -3 33 -12 18 -15 19 -15 7 0 -11 15 -8 15 28 6 25 -7 40
-17 40 -27 0 -11 2 -12 8 -2 6 9 15 10 33 3 17 -7 19 -10 7 -10 -10 -1 -18 -5
-18 -10 0 -6 -12 -6 -30 -1 l-30 9 15 -36 c8 -19 12 -40 8 -46 -3 -5 -1 -7 4
-4 6 4 13 -2 16 -13 4 -17 14 -20 61 -20 31 0 56 -3 56 -7 -1 -18 -17 -29 -53
-38 -21 -6 -39 -14 -40 -20 -1 -5 31 -23 70 -39 40 -16 69 -34 66 -39 -3 -6
-1 -7 4 -4 6 4 30 0 54 -9 41 -14 169 -44 190 -44 34 0 -35 80 -91 105 -34 15
-38 20 -27 34 10 14 10 14 -4 4 -12 -10 -27 -9 -70 2 -29 8 -64 15 -76 15 -13
0 -23 5 -23 11 0 5 5 7 12 3 7 -4 8 -3 4 4 -10 16 30 15 87 -2 48 -14 63 -5
30 19 -19 14 -26 45 -11 45 6 0 8 -6 5 -14 -8 -20 4 -28 20 -14 10 8 17 8 24
1 8 -8 7 -13 -2 -18 -8 -5 -10 -4 -5 3 4 7 2 12 -4 12 -21 0 -4 -23 19 -27 16
-2 20 1 15 9 -6 9 -3 9 9 -1 9 -7 14 -18 10 -24 -3 -6 -1 -7 5 -3 15 9 94 -53
85 -67 -3 -6 -1 -7 4 -4 11 7 70 -62 65 -76 -1 -5 2 -5 8 -2 7 4 14 -2 17 -13
8 -33 87 -47 253 -46 154 0 201 4 193 17 -11 18 100 162 117 152 4 -3 14 3 21
13 13 16 12 16 -6 2 -20 -15 -20 -15 0 8 11 13 27 21 36 19 11 -3 16 0 13 8
-3 7 2 15 11 19 11 4 14 2 9 -7 -6 -8 -3 -8 9 1 18 16 37 8 37 -15 0 -10 6
-13 16 -9 8 3 12 2 9 -4 -3 -6 0 -10 7 -10 10 0 9 -3 -2 -10 -9 -5 -19 -5 -26
1 -8 6 -16 3 -25 -8 -12 -16 -12 -17 1 -8 10 6 9 4 -2 -6 -11 -10 -27 -15 -44
-11 -22 4 -26 2 -21 -11 4 -12 2 -14 -11 -10 -9 3 -14 3 -10 -2 9 -9 -9 -35
-24 -35 -6 0 -4 7 3 17 13 15 12 15 -8 2 -16 -10 -19 -16 -10 -22 9 -7 9 -10
0 -14 -19 -7 -15 -33 5 -33 9 0 41 7 71 15 30 8 59 11 64 8 5 -3 12 -1 16 4
11 16 151 62 168 56 10 -4 14 -2 10 4 -4 6 1 10 11 9 9 0 16 4 15 10 -1 6 9
17 22 24 39 21 30 28 -37 33 -35 2 -74 7 -88 11 -20 6 -22 6 -10 -4 13 -10 13
-11 -2 -6 -10 3 -20 1 -23 -4 -4 -6 -12 -10 -18 -10 -7 0 -6 4 3 10 13 9 13
10 0 11 -8 0 -4 5 10 9 36 12 108 12 115 0 12 -20 45 -9 80 26 19 19 33 39 30
44 -3 4 5 6 17 2 13 -3 19 -1 15 5 -4 6 0 14 9 17 8 3 12 2 9 -3 -3 -5 -1 -12
5 -16 5 -3 10 -1 10 6 0 7 2 10 5 7 12 -11 -8 -39 -24 -34 -13 5 -13 4 1 -7
10 -8 14 -17 10 -21 -4 -4 0 -6 8 -4 8 2 17 6 20 9 3 4 28 24 55 44 28 21 41
28 31 17 -11 -12 -15 -22 -9 -22 5 0 18 9 28 20 25 28 7 45 -44 41 -21 -1 -42
2 -45 8 -4 6 6 8 29 4 20 -3 35 -2 34 3 -1 5 0 12 1 17 6 19 5 33 -5 40 -5 4
1 5 15 3 14 -3 29 -5 34 -5 5 -1 3 -8 -4 -16 -17 -20 4 -20 25 1 8 9 22 13 30
10 8 -3 15 -1 15 4 0 6 5 10 11 10 5 0 7 -6 3 -12 -4 -8 -3 -10 2 -5 5 5 9 14
9 20 0 7 7 13 15 13 8 1 20 3 25 4 6 1 13 2 16 2 3 -1 5 26 4 58 -1 34 2 57 7
54 5 -3 15 -1 23 6 15 12 31 -3 20 -19 -3 -5 -1 -12 5 -16 5 -3 10 3 10 14 0
11 -5 23 -10 26 -13 8 6 46 22 42 6 -1 13 5 15 13 4 13 3 13 -6 0 -7 -9 -11
-10 -11 -3 0 6 4 14 9 17 12 8 20 55 10 62 -5 3 -9 16 -9 28 0 13 -6 29 -14
36 -12 9 -18 7 -33 -9 -18 -22 -53 -29 -53 -10 0 5 -4 7 -10 4 -12 -8 -13 5
-1 23 10 17 21 17 31 2 9 -15 46 -4 54 16 3 8 2 12 -4 9 -6 -3 -10 3 -10 14 0
22 14 28 25 11 12 -20 33 -9 39 21 3 19 10 28 17 23 6 -3 3 6 -7 22 -11 15
-18 31 -17 34 2 3 -15 5 -36 5 -36 0 -38 1 -25 16 19 21 18 36 -11 97 -13 28
-22 52 -19 52 3 0 16 -23 29 -51 l23 -52 26 26 c29 29 36 19 9 -12 -9 -11 -21
-17 -26 -14 -6 3 -7 1 -3 -5 4 -6 14 -8 23 -5 11 4 14 2 9 -5 -4 -6 -2 -21 4
-32 9 -17 17 -20 48 -15 l37 6 -25 -23 c-14 -13 -23 -22 -21 -21 2 2 13 -7 23
-20 19 -21 20 -21 33 -4 8 11 11 26 8 35 -5 11 -3 13 6 7 9 -5 12 -2 9 11 -2
11 -9 19 -16 19 -6 0 -11 5 -9 10 1 6 4 9 8 8 3 -1 5 13 6 32 1 25 -4 34 -19
38 -16 5 -19 12 -16 30 4 20 1 24 -11 19 -14 -5 -14 -3 -2 11 7 9 10 17 5 17
-4 0 -3 5 4 12 9 9 8 16 -6 32 -16 20 -16 20 0 7 15 -11 23 -11 53 3 36 18 46
42 20 52 -8 4 -12 11 -8 17 4 6 1 7 -6 2 -15 -9 -66 37 -87 78 -10 18 -22 27
-40 27 -20 0 -23 3 -16 16 14 26 3 54 -22 54 -26 0 -70 -42 -71 -68 -1 -9 -2
-33 -3 -52 -2 -24 -5 -31 -11 -21 -7 11 -9 11 -14 0 -3 -8 -6 23 -6 69 -1 46
3 81 7 78 4 -2 9 5 9 17 2 15 0 18 -6 8 -6 -9 -14 -5 -31 19 -18 25 -21 37
-13 49 11 18 39 22 36 5 -1 -6 5 -11 13 -11 12 0 12 2 0 16 -12 13 -12 19 -2
33 7 10 16 14 21 10 4 -4 4 3 1 16 -5 14 -3 22 4 22 6 0 8 -5 4 -12 -6 -10 -5
-10 8 0 12 10 18 9 28 -3 7 -8 10 -21 7 -29 -3 -8 -2 -16 2 -18 4 -2 11 -20
14 -41 5 -33 3 -39 -19 -49 -13 -6 -24 -16 -24 -21 0 -6 -8 -19 -17 -30 -18
-20 -18 -20 9 -2 15 9 26 20 23 24 -2 4 6 7 18 7 15 -1 22 5 21 16 -1 9 6 17
15 17 30 1 82 9 86 13 10 9 -20 99 -51 156 -37 69 -40 77 -21 66 9 -5 9 -4 0
6 -7 8 -21 15 -32 17 -16 2 -20 -6 -26 -58 -5 -46 -10 -57 -19 -49 -7 5 -16 7
-19 3 -12 -11 -8 11 13 67 11 30 20 56 20 58 0 2 3 1 8 -1 4 -3 7 5 7 18 0 13
-3 21 -6 19 -8 -5 -49 43 -42 49 3 3 -4 3 -16 0 -12 -3 -25 -19 -31 -39 -7
-19 -15 -34 -19 -34 -12 0 -7 -176 6 -191 10 -12 8 -17 -9 -28 -26 -16 -37 -2
-39 49 0 19 -2 43 -4 53 -2 10 3 17 13 18 11 0 12 2 5 6 -7 2 -13 17 -13 31 1
35 35 127 46 125 22 -4 12 56 -14 84 -14 15 -25 32 -24 36 1 5 -2 6 -6 3 -5
-3 -17 3 -27 14 -22 25 -35 25 -36 3 0 -15 -2 -14 -11 4 -6 12 -18 24 -27 26
-14 4 -13 5 2 6 22 1 22 13 -2 31 -11 7 -18 17 -15 21 2 4 -3 6 -12 5 -47 -7
-59 -93 -20 -139 21 -24 27 -26 52 -17 24 9 27 9 16 -2 -29 -29 -176 2 -156
33 3 5 -1 7 -8 4 -21 -8 -123 98 -188 195 -60 89 -67 102 -53 98 5 -2 7 -7 5
-11 -1 -5 2 -6 8 -2 5 3 10 2 10 -4 0 -31 133 -201 158 -201 6 0 -8 30 -30 67
-22 37 -45 82 -50 101 -6 21 -18 36 -34 42 -13 5 -24 14 -24 20 0 5 -5 10 -11
10 -5 0 -7 -4 -4 -10 3 -5 2 -10 -4 -10 -5 0 -13 5 -16 10 -4 6 -10 8 -15 5
-4 -3 -16 -2 -25 1 -14 6 -13 8 5 21 12 8 28 12 36 9 9 -3 12 -2 9 4 -10 16
74 50 122 50 34 0 41 3 37 15 -4 10 -20 15 -51 15 -27 0 -42 4 -38 10 4 6 11
7 17 4 6 -4 8 -2 5 3 -4 6 0 24 8 39 8 16 15 35 15 43 0 11 3 11 16 0 24 -20
86 -148 78 -162 -4 -7 -4 -9 -1 -6 4 3 25 -11 47 -33 48 -45 80 -49 116 -13
23 23 25 33 22 80 -2 38 1 55 9 55 20 0 85 -68 77 -81 -4 -8 -3 -9 4 -5 11 7
17 -6 13 -27 -1 -5 3 -6 8 -2 16 9 33 -66 18 -84 -9 -12 -9 -13 1 -7 7 4 12 1
12 -8 0 -9 -6 -13 -14 -10 -8 3 -17 0 -22 -7 -5 -8 -3 -10 7 -5 8 4 5 0 -5 -8
-25 -20 -29 -20 -49 2 -20 22 -28 63 -15 79 16 20 38 3 38 -31 l1 -31 18 22
c10 12 20 21 22 20 3 -1 -2 3 -9 10 -8 6 -11 17 -6 24 4 7 3 10 -4 5 -6 -3
-13 -2 -17 4 -12 19 -51 11 -65 -14 -11 -22 -11 -40 1 -85 6 -23 65 -71 86
-71 11 0 30 12 44 26 32 34 30 86 -9 166 -37 76 -66 110 -121 137 -22 12 -41
25 -41 30 0 4 -11 25 -25 45 -14 21 -23 42 -20 47 3 5 0 6 -7 4 -8 -3 -22 1
-33 9 -11 9 -14 16 -7 16 6 0 12 5 12 10 0 14 -58 4 -124 -21 l-48 -18 7 77
c4 42 16 105 27 140 12 34 18 65 14 69 -8 8 -5 12 -49 -78 -52 -109 -113 -161
-131 -113 -11 29 -6 49 29 123 34 70 39 99 13 73 -7 -7 -21 -12 -31 -12 -11 0
-21 -9 -24 -21 -5 -16 -8 -18 -15 -7 -7 9 -8 8 -4 -6 8 -23 -20 -69 -36 -60
-6 4 -8 3 -5 -3 9 -14 -19 -37 -34 -27 -7 4 -9 3 -6 -3 8 -12 -14 -23 -44 -23
-34 0 -28 42 17 117 19 31 34 63 34 70 0 23 -30 27 -68 7 -21 -10 -40 -20 -45
-22 -4 -2 -4 3 -1 12 7 18 -4 20 -40 6 -16 -6 -26 -17 -26 -30 0 -29 -31 -101
-41 -94 -5 3 -6 -2 -3 -11 5 -11 2 -14 -12 -8 -11 4 -15 3 -11 -4 13 -20 -23
-23 -43 -3 -21 21 -40 26 -40 12 0 -16 47 -52 68 -52 12 0 37 13 55 30 19 16
37 27 41 25 3 -3 4 -2 2 1 -2 3 0 18 5 32 13 39 130 115 129 85 0 -5 -16 -33
-35 -63 -19 -30 -35 -66 -35 -80 0 -32 28 -60 59 -60 13 0 20 -4 16 -11 -4 -6
-13 -8 -21 -5 -8 3 -11 0 -8 -9 3 -7 -2 -25 -11 -39 -10 -15 -14 -34 -10 -48
5 -20 4 -20 -12 5 -23 36 -31 34 -39 -9 -5 -25 -9 -32 -15 -22 -7 10 -9 10 -9
0 0 -9 -5 -10 -18 -3 -15 8 -19 6 -19 -7 0 -9 6 -24 14 -34 14 -15 12 -15 -21
0 -19 8 -32 20 -29 26 3 6 2 8 -2 3 -12 -10 -17 -47 -7 -47 8 0 32 -43 32 -56
0 -3 -11 3 -24 13 -13 10 -22 21 -20 25 2 3 -5 4 -16 1 -22 -6 -26 -18 -10
-28 6 -3 10 -13 10 -21 0 -12 -4 -12 -34 0 -18 8 -39 11 -45 7 -13 -8 -5 -41
10 -41 5 0 9 -7 9 -16 0 -8 4 -13 9 -10 11 7 43 -28 34 -38 -4 -4 0 -4 10 0
10 3 17 1 17 -6 0 -6 5 -8 12 -4 24 15 61 8 76 -15 15 -22 15 -23 -24 -15 -61
11 -145 44 -138 55 3 6 -2 9 -11 7 -13 -2 -19 5 -21 27 -2 17 -5 37 -6 46 -2
10 -10 14 -25 11 -30 -6 -29 -25 2 -42 14 -7 25 -17 25 -22 0 -14 -11 -9 -51
23 -36 28 -42 30 -57 16 -9 -8 -48 -31 -87 -51 -38 -21 -61 -29 -50 -19 28 24
61 81 52 89 -3 4 -24 -1 -47 -10 -39 -15 -40 -15 -40 4 0 11 5 20 11 20 20 0
3 23 -19 25 -11 1 -19 -2 -16 -6 2 -4 -1 -11 -7 -15 -9 -5 -10 3 -5 30 8 42
-8 65 -48 68 -13 1 -22 6 -20 10 3 4 0 8 -5 8 -6 0 -11 7 -11 15 0 17 -50 66
-62 59 -4 -3 -13 6 -20 20 -6 14 -15 26 -20 26 -5 0 -6 6 -2 13 6 9 5 9 -8 0
-8 -7 -18 -10 -21 -7 -9 9 24 55 34 48 5 -3 6 1 3 9 -3 8 -1 18 5 22 6 3 11 2
11 -3 0 -4 9 -18 20 -30 26 -28 73 -29 100 -2 14 14 20 16 20 6 0 -7 7 -19 15
-26 22 -18 70 4 108 52 27 34 32 37 38 21 11 -27 10 -35 -3 -27 -7 4 -8 3 -4
-5 4 -6 11 -9 16 -6 5 3 11 1 15 -5 9 -15 58 -12 83 6 12 8 22 12 23 7 0 -4 4
1 8 12 5 13 10 -6 15 -58 4 -43 10 -85 13 -93 5 -15 3 -15 -24 0 -38 19 -104
30 -136 22 -34 -8 -77 -55 -77 -83 0 -33 34 -79 72 -99 31 -16 91 -21 124 -10
24 8 64 66 64 93 0 19 6 21 47 20 38 0 50 4 70 27 25 29 31 80 11 92 -6 4 -14
2 -16 -4 -9 -28 -72 -38 -72 -11 0 4 7 6 15 3 19 -8 19 10 0 26 -20 16 -45 6
-45 -19 0 -27 43 -55 75 -49 14 3 25 2 25 -3 0 -19 -35 -39 -69 -39 l-38 0 -7
53 c-3 28 -9 73 -12 99 -5 37 -1 57 20 104 17 37 23 61 17 67 -7 7 -14 1 -22
-16 -7 -15 -16 -24 -21 -21 -5 3 -8 2 -7 -3 4 -21 -2 -34 -13 -27 -7 4 -8 3
-4 -5 9 -14 -46 -71 -68 -71 -11 0 -16 10 -16 33 0 39 49 120 68 112 7 -2 10
0 7 5 -3 6 -1 10 4 10 6 0 11 -7 11 -15 0 -22 17 -18 23 5 3 13 -1 24 -13 30
-22 12 -44 5 -86 -26 -17 -13 -35 -20 -39 -16 -5 4 -5 2 -2 -4 8 -14 -36 -57
-47 -47 -4 5 -7 4 -6 -2 5 -21 0 -36 -10 -30 -6 4 -10 3 -9 -2 4 -16 -13 -43
-24 -36 -5 3 -7 1 -3 -5 3 -6 1 -14 -5 -18 -6 -3 -14 -2 -18 4 -4 6 -12 4 -21
-6 -13 -14 -12 -15 3 -9 11 4 16 3 12 -3 -9 -15 -35 -12 -35 4 0 23 22 80 42
108 20 29 17 48 -7 48 -7 0 -16 -11 -19 -25 -4 -16 -11 -23 -18 -19 -7 4 -8 3
-4 -4 9 -15 -12 -54 -24 -47 -6 3 -7 0 -4 -8 3 -8 0 -18 -7 -23 -8 -5 -10 -3
-4 6 5 9 4 11 -4 6 -6 -4 -9 -11 -6 -16 8 -12 -23 -33 -40 -26 -8 3 -15 17
-15 30 0 34 21 77 33 69 6 -4 7 -1 3 6 -5 7 0 21 10 32 18 20 54 26 54 9 0 -5
5 -10 11 -10 21 0 4 45 -18 48 -48 7 -122 -55 -185 -155 -18 -29 -37 -53 -42
-53 -34 0 -61 -91 -35 -117 9 -9 7 -10 -9 -6 -12 3 -20 9 -17 12 2 4 -2 8 -9
8 -9 0 -6 -13 10 -43 l22 -42 -23 3 c-13 1 -37 11 -52 21 -15 10 -32 17 -36
16 -4 -1 -17 2 -27 8 -15 8 -20 21 -20 49 0 34 4 40 31 52 17 7 53 34 79 60
41 41 48 54 57 108 5 33 7 59 5 56 -3 -3 -16 11 -29 30 -46 68 -122 83 -204
40z m1221 -263 c0 -54 70 -87 118 -56 15 10 31 17 35 16 5 -1 6 1 4 5 -3 5 1
19 9 33 l15 25 -5 -30 c-3 -16 -7 -49 -8 -72 -2 -39 -3 -41 -25 -32 -14 5 -40
5 -64 0 -25 -6 -41 -5 -45 1 -4 7 -10 4 -16 -6 -5 -9 -14 -16 -20 -16 -6 0 -4
8 5 18 20 22 21 51 3 75 -17 22 -22 22 -29 -4 -4 -13 -10 -18 -18 -13 -7 4
-10 3 -5 -4 3 -6 2 -13 -3 -17 -16 -9 -32 30 -19 43 7 7 8 12 3 12 -11 0 45
38 58 39 4 1 7 -7 7 -17z m-1376 -32 c-15 -22 -28 -40 -30 -40 -1 0 2 15 7 32
5 18 9 34 9 35 0 1 8 4 18 6 9 3 18 5 20 6 1 0 -10 -17 -24 -39z m436 -12 c8
-20 9 -21 9 -4 1 11 4 17 7 13 4 -3 4 -13 0 -22 -5 -13 -9 -13 -26 -3 -25 16
-34 38 -14 38 8 0 19 -10 24 -22z m93 -75 c-6 -14 -8 -14 -14 3 -12 30 -10 37
5 24 8 -6 12 -19 9 -27z m393 -4 c19 -11 34 -27 34 -34 0 -24 -20 -68 -38 -81
-22 -17 -86 -19 -76 -2 4 7 3 8 -4 4 -19 -11 -69 21 -76 49 -7 29 6 59 32 74
29 17 92 12 128 -10z m767 -7 c-12 -20 -14 -40 -9 -72 10 -69 19 -78 55 -57
16 9 36 17 45 17 34 0 49 -99 19 -132 -17 -19 -63 -25 -63 -8 0 6 -7 10 -15
10 -17 0 -37 34 -27 45 4 5 2 5 -4 2 -10 -5 -90 139 -86 156 1 4 -4 7 -10 8
-10 0 98 59 109 59 1 0 -5 -13 -14 -28z m-1526 -71 c-7 -56 -36 -123 -50 -114
-6 3 -7 1 -4 -4 4 -6 -3 -22 -14 -37 -26 -33 -73 -36 -90 -4 -12 23 -6 115 10
131 12 12 51 -9 51 -28 0 -8 9 -19 20 -25 16 -8 20 -8 18 2 -2 7 2 12 7 11 11
-1 17 28 19 94 1 37 3 40 20 31 15 -8 18 -18 13 -57z m1333 64 c0 -8 -81 -47
-108 -51 -25 -5 -25 -5 4 19 16 13 36 27 44 30 19 7 60 9 60 2z m264 -28 c31
-41 33 -57 5 -57 -11 0 -29 -4 -39 -10 -15 -8 -18 -5 -22 21 -7 43 2 79 18 79
7 0 24 -15 38 -33z m-1654 -15 c0 -21 -2 -41 -5 -44 -8 -7 -74 25 -75 36 0 18
34 46 57 46 20 0 23 -5 23 -38z m530 -22 c0 -5 -7 -10 -16 -10 -8 0 -12 5 -9
10 3 6 10 10 16 10 5 0 9 -4 9 -10z m879 -22 c-7 -13 -18 -29 -26 -36 -11 -11
-13 -11 -13 3 0 9 -4 14 -10 10 -5 -3 -7 -13 -4 -23 5 -14 4 -15 -5 -2 -9 13
-15 9 -13 -10 0 -3 -9 -7 -20 -7 -24 -2 -21 1 45 51 57 42 62 44 46 14z m-909
-2 c0 -3 -4 -8 -10 -11 -5 -3 -10 -1 -10 4 0 6 5 11 10 11 6 0 10 -2 10 -4z
m17 -108 c-3 -8 -6 -5 -6 6 -1 11 2 17 5 13 3 -3 4 -12 1 -19z m54 -69 c-16
-6 -28 -6 -35 1 -7 7 1 10 25 9 32 0 33 -1 10 -10z m-748 -16 c-6 -2 -9 -12
-6 -22 5 -18 -20 -51 -38 -51 -15 0 -10 20 6 27 9 3 15 13 13 22 -4 22 11 43
25 34 8 -5 8 -8 0 -10z m421 -14 c-8 -14 -34 -11 -34 4 0 8 3 17 7 20 9 9 34
-13 27 -24z m41 1 c-3 -6 1 -7 9 -4 9 3 16 2 16 -4 0 -5 8 -9 18 -8 9 0 16 -4
15 -10 -1 -6 4 -11 12 -11 8 0 12 4 9 9 -3 4 0 8 5 8 13 0 14 -20 3 -37 -4 -6
-39 -13 -80 -15 -50 -2 -68 0 -59 7 8 6 14 12 15 15 1 16 27 60 34 60 5 0 6
-4 3 -10z m1115 -54 c0 -12 -5 -7 -19 24 -11 24 -11 24 3 6 9 -11 16 -24 16
-30z m-1208 -8 c-6 -26 -47 -79 -71 -92 -9 -5 2 10 24 33 21 22 36 41 32 41
-4 0 -3 9 3 20 14 26 19 25 12 -2z m1179 -60 c23 -35 73 -93 112 -129 57 -54
66 -66 46 -64 -39 4 -40 5 -35 13 2 4 -31 7 -75 7 -55 0 -80 3 -83 12 -3 7
-16 13 -30 13 -13 0 -26 6 -29 14 -4 9 -16 12 -39 9 -48 -6 -74 -5 -165 8
-107 14 -110 27 -10 45 20 3 37 10 37 14 0 21 100 59 168 63 6 0 12 6 12 13 0
6 11 15 25 18 14 4 23 11 20 16 -3 6 -4 10 -1 10 3 0 24 -28 47 -62z m309 -72
c0 -3 -4 -8 -10 -11 -5 -3 -10 -1 -10 4 0 6 5 11 10 11 6 0 10 -2 10 -4z
m-1949 -232 c21 -22 21 -24 4 -19 -20 7 -20 6 0 -10 l20 -17 -20 4 c-14 3 -19
11 -18 26 2 14 -1 21 -7 17 -6 -3 -10 1 -10 9 0 21 2 20 31 -10z m2159 -103
c0 -4 -6 -15 -13 -25 -11 -16 -13 -13 -15 20 -3 32 -1 36 13 24 8 -7 15 -16
15 -19z m-128 -23 c-6 -6 -7 0 -4 19 5 21 7 23 10 9 2 -10 0 -22 -6 -28z m231
-13 c14 -29 14 -31 -4 -32 -15 -1 -19 5 -19 34 0 41 1 40 23 -2z m-255 11 c11
-11 -22 -36 -39 -31 -11 4 -19 2 -19 -4 0 -6 -4 -11 -10 -11 -5 0 -6 7 -3 17
4 11 3 14 -5 9 -8 -4 -10 -2 -6 8 8 21 64 29 82 12z m-122 -35 c0 -19 -5 -27
-13 -24 -9 3 -13 -4 -13 -20 0 -14 -5 -29 -12 -33 -7 -5 -8 -3 -3 7 5 8 0 7
-11 -3 -11 -10 -37 -19 -57 -20 -20 -2 -37 -6 -37 -9 0 -4 -13 -9 -30 -11 -26
-4 -28 -2 -17 11 11 14 10 14 -5 2 -10 -7 -32 -12 -52 -9 -19 2 -32 0 -30 -4
8 -13 -11 -9 -25 5 -11 10 -12 9 -6 -2 6 -10 2 -11 -16 -5 -13 5 -68 8 -121 7
-109 -2 -136 13 -33 19 36 1 65 0 65 -3 0 -7 96 10 125 22 71 29 217 70 230
65 9 -3 13 -2 10 4 -3 6 -2 10 4 10 5 0 13 -4 16 -10 3 -5 12 -10 18 -9 9 0 9
2 0 6 -10 3 -10 7 0 18 7 8 13 14 13 15 1 0 1 -13 0 -29z m-1796 -47 c38 -2
87 -11 100 -19 6 -4 18 -1 26 6 17 14 36 1 40 -27 1 -9 0 -13 -3 -10 -4 3 -11
2 -17 -3 -12 -11 -206 -24 -206 -14 0 19 24 82 29 76 3 -4 17 -9 31 -9z m187
-56 c-3 -7 -5 -2 -5 12 0 14 2 19 5 13 2 -7 2 -19 0 -25z m113 2 c0 -5 -4 -10
-10 -10 -5 0 -10 5 -10 10 0 6 5 10 10 10 6 0 10 -4 10 -10z m171 -4 c-6 -8
-20 -13 -29 -11 -9 2 -20 4 -24 4 -5 1 -8 5 -8 9 0 4 16 9 37 10 30 2 34 1 24
-12z m39 4 c0 -5 -5 -10 -11 -10 -5 0 -7 5 -4 10 3 6 8 10 11 10 2 0 4 -4 4
-10z m1137 -36 c-3 -3 -12 -4 -19 -1 -8 3 -5 6 6 6 11 1 17 -2 13 -5z m503
-34 c0 -5 -5 -10 -11 -10 -5 0 -7 5 -4 10 3 6 8 10 11 10 2 0 4 -4 4 -10z
m-573 -15 c0 -8 -5 -12 -10 -8 -5 3 -6 -4 -3 -18 6 -21 5 -22 -4 -6 -9 14 -9
22 0 33 15 18 17 18 17 -1z m-180 -11 c-3 -3 -12 -4 -19 -1 -8 3 -5 6 6 6 11
1 17 -2 13 -5z m466 -24 c-9 -11 -19 -18 -21 -16 -6 7 22 45 30 40 4 -3 0 -13
-9 -24z m-468 -10 c4 -6 1 -9 -7 -8 -7 2 -13 -4 -13 -14 0 -9 -13 -29 -29 -45
-18 -17 -27 -22 -23 -11 3 10 2 20 -3 23 -9 6 -8 31 3 41 4 4 7 -1 8 -12 0
-14 2 -15 6 -4 6 16 33 39 45 40 4 0 10 -5 13 -10z m115 -6 c-20 -23 -54 -39
-47 -22 2 7 10 12 16 10 6 -1 14 5 17 13 4 8 11 15 16 15 6 0 5 -7 -2 -16z
m100 -5 c0 -19 -30 -41 -47 -35 -14 6 -14 8 2 26 19 22 45 27 45 9z m537 -29
c-7 -17 -13 -25 -16 -18 -2 7 -10 20 -17 28 -12 14 -9 16 16 18 28 2 28 1 17
-28z m-853 -17 c-4 -10 -8 -27 -8 -38 -1 -11 -8 -20 -16 -20 -8 0 -16 -10 -18
-23 -3 -16 -8 -22 -19 -18 -8 3 -19 6 -24 6 -12 0 -12 27 1 35 6 4 7 -1 3 -12
-5 -17 -5 -17 12 -1 14 13 16 20 7 31 -13 15 -6 28 11 21 7 -2 21 7 32 20 22
27 32 26 19 -1z m127 -4 c-31 -28 -48 -35 -33 -14 7 11 53 44 62 44 2 1 -11
-13 -29 -30z m54 -9 c3 -5 1 -10 -5 -10 -6 0 -8 -5 -5 -11 4 -6 -2 -13 -14
-16 -12 -3 -21 -11 -21 -19 0 -8 -6 -11 -15 -8 -20 8 -19 24 2 24 9 0 13 3 10
7 -8 7 21 43 34 43 4 0 11 -4 14 -10z m275 0 c0 -5 -5 -10 -11 -10 -5 0 -7 5
-4 10 3 6 8 10 11 10 2 0 4 -4 4 -10z m-20 -28 c0 -18 -38 -81 -45 -74 -5 4
-6 0 -3 -8 8 -21 -11 -43 -49 -59 -27 -11 -31 -17 -28 -43 3 -26 2 -28 -13
-16 -11 9 -14 10 -8 1 4 -7 2 -13 -3 -13 -19 0 -12 30 16 68 15 20 32 42 38
47 7 6 20 25 29 43 9 18 21 30 25 27 5 -2 14 2 21 10 11 13 10 14 -6 9 -16 -5
-16 -4 -4 5 18 13 30 14 30 3z m-167 -88 c-24 -26 -43 -51 -43 -56 0 -12 -30
-42 -31 -31 0 4 -4 -1 -8 -12 -8 -19 -8 -19 -20 4 -8 15 -9 21 -2 17 6 -4 11
0 11 9 0 8 10 19 23 24 12 5 40 28 62 50 54 57 61 52 8 -5z m484 9 c-3 -10 -5
-4 -5 12 0 17 2 24 5 18 2 -7 2 -21 0 -30z m36 -59 c-8 -18 -33 -31 -33 -17 0
7 34 42 38 38 1 -1 -1 -11 -5 -21z m-1179 -25 c-2 -4 1 -9 8 -11 7 -3 0 -13
-17 -24 -17 -10 -33 -23 -37 -28 -4 -6 -12 -5 -21 3 -12 10 -18 8 -29 -7 -9
-13 -19 -17 -33 -12 -19 7 -19 7 3 19 12 6 22 9 22 6 0 -3 10 5 23 18 12 13
30 28 40 34 22 11 48 13 41 2z m156 -49 c0 -23 -4 -30 -20 -30 -11 0 -20 -4
-20 -10 0 -5 8 -7 18 -4 16 5 16 5 0 -6 -10 -6 -18 -19 -19 -28 0 -12 -3 -10
-10 7 -8 19 -12 21 -24 11 -12 -10 -15 -10 -15 2 0 23 35 49 55 42 15 -6 16
-4 7 13 -12 22 -7 33 15 33 8 0 13 -12 13 -30z m377 15 c0 -8 -4 -15 -9 -15
-10 0 -11 14 -1 23 9 10 10 9 10 -8z m-457 -10 c0 -2 -12 -17 -27 -33 -35 -36
-57 -64 -72 -88 -11 -17 -11 -17 -6 4 4 13 2 22 -5 22 -6 0 -10 10 -8 23 2 15
9 21 22 19 12 -2 16 1 10 9 -4 8 -3 10 4 5 11 -7 26 2 55 31 12 12 27 17 27 8z
m101 -18 c-10 -9 -11 -8 -5 6 3 10 9 15 12 12 3 -3 0 -11 -7 -18z m1164 5 c-3
-3 -11 0 -18 7 -9 10 -8 11 6 5 10 -3 15 -9 12 -12z m-665 -7 c0 -2 -9 -3 -19
-2 -11 0 -18 5 -15 9 4 6 34 0 34 -7z m-798 -40 c-2 -4 2 -11 10 -16 9 -6 6
-8 -9 -6 -12 0 -19 5 -17 9 3 4 0 8 -5 8 -6 0 -11 -6 -12 -12 0 -10 -2 -10 -6
0 -2 6 -10 10 -16 6 -7 -3 -4 1 6 9 18 15 55 17 49 2z m168 -31 c0 -8 -5 -12
-10 -9 -6 4 -8 11 -5 16 9 14 15 11 15 -7z m1131 -147 c-10 -9 -11 -8 -5 6 3
10 9 15 12 12 3 -3 0 -11 -7 -18z m-8 -134 c-3 -7 -9 -13 -14 -13 -5 0 -9 -4
-9 -10 0 -5 6 -9 13 -7 8 1 13 -14 15 -47 3 -41 1 -47 -10 -38 -11 9 -14 7
-15 -9 -1 -11 2 -17 6 -15 4 3 8 -1 8 -9 0 -8 -5 -11 -10 -8 -6 4 -8 -1 -4
-11 4 -11 3 -15 -4 -11 -5 4 -9 32 -7 63 3 53 1 57 -19 56 -12 0 -21 4 -20 9
4 19 -21 18 -27 -1 -4 -10 -13 -19 -22 -19 -10 0 -2 12 21 33 20 17 44 31 53
29 24 -4 37 6 21 16 -10 6 -8 8 8 7 12 -1 19 -7 16 -15z m-117 -95 c5 -7 3 -8
-6 -3 -10 6 -12 4 -7 -8 3 -10 2 -17 -2 -17 -14 0 -21 28 -8 34 7 2 13 5 14 5
1 1 5 -4 9 -11z m-829 -14 c-3 -3 -12 -4 -19 -1 -8 3 -5 6 6 6 11 1 17 -2 13
-5z m-77 -19 c0 -8 -2 -15 -4 -15 -2 0 -6 7 -10 15 -3 8 -1 15 4 15 6 0 10 -7
10 -15z m854 -24 c3 -4 0 -16 -8 -26 -11 -15 -13 -16 -13 -1 0 9 5 16 11 16 6
0 4 5 -4 10 -9 6 -10 10 -3 10 6 0 14 -4 17 -9z m-811 -18 c-3 -7 -9 -10 -14
-7 -16 10 -9 -12 11 -34 21 -22 27 -37 11 -27 -5 3 -13 0 -16 -6 -9 -14 -45
24 -45 48 -1 17 -1 17 -11 0 -5 -9 -8 -21 -5 -25 2 -4 1 -14 -5 -22 -6 -11 -9
-1 -9 31 0 43 2 46 25 44 14 -2 27 0 30 4 8 13 33 8 28 -6z m767 -17 c0 -2 -8
-10 -17 -17 -16 -13 -17 -12 -4 4 13 16 21 21 21 13z m-1405 -26 c3 -6 -1 -7
-9 -4 -18 7 -21 14 -7 14 6 0 13 -4 16 -10z m1625 -17 c0 -3 -7 -2 -16 1 -11
4 -15 2 -11 -8 4 -10 1 -13 -9 -9 -11 4 -12 9 -4 19 10 11 40 9 40 -3z m-240
3 c0 -2 -7 -7 -16 -10 -8 -3 -12 -2 -9 4 6 10 25 14 25 6z m-756 -38 c15 5 23
-16 18 -47 -2 -19 -11 -31 -24 -34 -12 -4 -18 -11 -15 -20 3 -9 -2 -13 -16
-12 -15 1 -24 -5 -28 -19 -3 -12 -6 15 -6 59 0 44 2 71 4 61 4 -13 7 -15 13
-7 5 9 11 8 24 -4 9 -10 20 -15 23 -12 6 7 -23 38 -34 37 -4 -1 -9 4 -11 10
-3 9 3 8 19 -1 13 -7 28 -12 33 -11z m662 -50 c4 -7 4 -10 -1 -6 -4 4 -16 -3
-27 -15 l-19 -22 17 28 c19 31 20 32 30 15z m-46 -8 c-8 -5 -19 -10 -25 -10
-5 0 -3 5 5 10 8 5 20 10 25 10 6 0 3 -5 -5 -10z m65 -9 c-3 -6 -11 -11 -16
-11 -5 0 -4 6 3 14 14 16 24 13 13 -3z m-105 -16 c5 3 11 1 15 -5 3 -5 -3 -10
-14 -10 -14 0 -21 6 -20 18 0 10 3 12 6 4 2 -6 9 -10 13 -7z m-1348 -13 c-7
-2 -10 -7 -7 -12 3 -4 -4 -6 -15 -3 -11 3 -23 9 -26 14 -3 5 3 6 12 2 11 -4
15 -3 11 4 -5 7 1 9 15 5 12 -3 17 -7 10 -10z m1268 -18 c0 -11 -6 -14 -21 -9
-13 5 -19 3 -15 -3 3 -5 0 -14 -7 -19 -19 -16 -65 -24 -72 -13 -4 6 1 7 12 3
10 -3 14 -2 10 2 -4 5 11 19 35 32 52 27 58 28 58 7z m-470 -9 c0 -2 -6 -8
-13 -14 -10 -8 -14 -7 -14 2 0 8 6 14 14 14 7 0 13 -1 13 -2z m336 -71 c-5
-14 -9 -14 -22 -3 -14 12 -14 14 2 26 21 15 30 3 20 -23z"/>
<path d="M1106 2923 c-6 -14 -5 -15 5 -6 7 7 10 15 7 18 -3 3 -9 -2 -12 -12z"/>
<path d="M1760 1516 c0 -17 16 -30 23 -19 3 5 -1 14 -9 21 -12 10 -14 10 -14
-2z"/>
<path d="M2894 1188 c-4 -7 -3 -8 4 -4 7 4 12 3 12 -2 0 -5 11 -14 25 -20 30
-14 32 -9 7 16 -23 21 -39 25 -48 10z"/>
<path d="M1937 875 c-12 -11 -17 -12 -20 -2 -4 9 -6 9 -6 0 -2 -23 21 -25 40
-4 22 24 9 29 -14 6z"/>
<path d="M1006 3092 c-3 -5 1 -9 9 -9 8 0 12 4 9 9 -3 4 -7 8 -9 8 -2 0 -6 -4
-9 -8z"/>
<path d="M2543 2915 c0 -8 4 -12 9 -9 5 3 6 10 3 15 -9 13 -12 11 -12 -6z"/>
<path d="M1759 2853 c-1 -5 -1 -11 0 -15 0 -5 -3 -8 -7 -8 -5 0 -9 -6 -9 -13
0 -11 6 -11 24 -3 12 6 23 14 23 19 0 4 7 7 15 7 8 0 15 5 15 10 0 11 -59 14
-61 3z"/>
<path d="M821 2694 c0 -11 3 -14 6 -6 3 7 2 16 -1 19 -3 4 -6 -2 -5 -13z"/>
<path d="M1135 2680 c2 -3 -16 -16 -40 -29 l-43 -23 -5 -66 c-3 -37 -7 -77
-10 -89 -6 -25 0 -28 23 -13 9 6 20 5 30 -3 13 -10 13 -10 2 4 -10 13 -9 19 4
30 22 18 71 118 79 161 6 34 5 36 -18 34 -14 0 -24 -3 -22 -6z m2 -65 c-7 -23
-15 -34 -24 -31 -7 3 -13 1 -13 -4 0 -6 -4 -10 -10 -10 -5 0 -10 10 -10 23 0
20 21 38 67 56 0 1 -4 -15 -10 -34z"/>
<path d="M2520 2660 c0 -28 44 -112 80 -153 16 -19 27 -37 24 -40 -3 -3 4 -3
16 0 18 5 20 10 13 37 -4 17 -8 52 -7 78 1 38 -3 49 -18 54 -10 3 -15 10 -12
16 4 7 2 8 -4 4 -6 -4 -25 0 -41 9 -40 20 -51 19 -51 -5z m100 -93 l0 -50 -19
24 c-28 37 -43 68 -36 79 3 6 1 10 -4 10 -6 0 -11 4 -11 10 0 5 16 2 35 -7 33
-16 35 -19 35 -66z"/>
<path d="M2658 2564 c5 -39 12 -42 36 -15 17 19 11 31 -24 43 -13 5 -15 -1
-12 -28z"/>
<path d="M984 2575 c4 -20 27 -55 36 -55 6 0 10 16 10 35 0 31 -3 35 -24 33
-13 -1 -23 -7 -22 -13z"/>
<path d="M658 2218 c-21 -7 -37 -30 -68 -92 -53 -110 -53 -127 5 -149 l46 -16
11 27 c12 30 12 33 23 144 4 43 12 75 16 72 5 -3 6 2 3 10 -3 9 -7 16 -8 15 0
0 -13 -5 -28 -11z m-13 -146 c-11 -73 -18 -82 -58 -66 -28 10 13 110 44 110
19 0 20 -5 14 -44z"/>
<path d="M2885 2090 c0 -16 3 -31 6 -34 3 -3 5 7 5 23 -1 16 -3 32 -6 35 -3 3
-5 -8 -5 -24z"/>
<path d="M2977 2073 c-4 -3 -7 -25 -7 -48 0 -40 1 -42 26 -37 21 4 24 9 19 26
-4 11 -9 31 -12 44 -5 22 -14 28 -26 15z"/>
<path d="M697 2063 c-3 -5 -8 -23 -12 -40 -6 -31 -5 -33 19 -33 27 0 32 13 20
58 -6 22 -19 29 -27 15z"/>
<path d="M2912 1980 c7 -10 14 -18 15 -16 6 6 -9 36 -18 36 -5 0 -4 -9 3 -20z"/>
<path d="M2977 1968 c-10 -8 -14 -18 -9 -26 6 -9 12 -6 20 13 13 29 12 30 -11
13z"/>
<path d="M3126 1944 c-21 -8 -41 -12 -45 -10 -3 2 -6 -11 -6 -29 l0 -34 48 4
c27 2 51 6 54 9 9 9 10 55 2 50 -4 -2 -9 2 -11 10 -2 11 -9 11 -42 0z"/>
<path d="M515 1921 c-3 -17 -4 -35 -1 -40 4 -5 2 -11 -4 -13 -5 -1 15 -4 44
-5 50 -2 55 0 60 23 8 32 3 40 -31 47 -16 3 -35 8 -45 12 -12 5 -18 -1 -23
-24z"/>
<path d="M646 1912 c-3 -3 -6 -14 -6 -24 0 -15 5 -17 28 -12 41 10 45 19 12
31 -16 6 -31 8 -34 5z"/>
<path d="M516 1851 c-20 -8 -32 -46 -18 -55 5 -3 20 1 35 9 14 7 28 10 32 7 3
-4 3 1 -1 11 -3 9 -13 17 -21 17 -8 0 -11 5 -8 10 7 11 7 11 -19 1z"/>
<path d="M691 1806 c-13 -29 -32 -59 -44 -65 -12 -6 -14 -9 -4 -7 20 6 21 5 5
-29 -10 -22 -26 -29 -65 -28 -7 1 -11 -2 -8 -6 2 -4 -6 -16 -18 -26 -20 -18
-20 -20 -4 -23 9 -2 15 -8 12 -13 -3 -5 1 -6 9 -3 8 3 18 14 21 24 3 10 13 24
22 32 14 12 14 10 -1 -19 -24 -48 -37 -85 -27 -79 5 3 23 -10 40 -29 28 -32
50 -48 36 -26 -3 5 -1 12 3 15 5 3 15 26 22 51 7 24 15 43 19 41 3 -2 6 10 6
27 0 18 4 74 8 125 4 53 4 92 -2 92 -5 0 -18 -24 -30 -54z"/>
<path d="M3130 1837 c-9 -15 -9 -17 1 -11 9 5 10 2 6 -9 -3 -9 -1 -19 5 -23 7
-4 8 -3 4 4 -5 8 2 10 24 6 27 -6 30 -4 30 19 0 20 -6 26 -29 29 -20 3 -32 -1
-41 -15z"/>
<path d="M586 1838 c8 -13 -16 -49 -28 -42 -6 4 -8 3 -5 -3 7 -11 -32 -68 -40
-59 -10 10 -42 -30 -40 -51 0 -12 5 -19 10 -16 4 2 14 0 22 -7 9 -8 19 -8 32
-1 32 17 112 108 119 135 3 14 11 26 17 26 7 0 7 3 2 9 -12 11 -95 19 -89 9z"/>
<path d="M515 1760 c-3 -6 1 -7 9 -4 18 7 21 14 7 14 -6 0 -13 -4 -16 -10z"/>
<path d="M3165 1620 c3 -5 8 -10 11 -10 2 0 4 5 4 10 0 6 -5 10 -11 10 -5 0
-7 -4 -4 -10z"/>
<path d="M3176 1598 c-22 -30 -20 -48 4 -48 16 0 20 7 20 35 0 41 -3 43 -24
13z"/>
<path d="M497 1593 c-11 -10 -8 -41 4 -49 6 -3 18 1 27 9 13 13 13 19 2 31
-14 17 -23 20 -33 9z"/>
<path d="M710 1597 c0 -1 -9 -26 -20 -56 -14 -41 -17 -58 -9 -73 14 -26 24
-14 38 47 7 28 14 58 17 68 4 11 0 17 -10 17 -9 0 -16 -1 -16 -3z"/>
<path d="M552 1535 c-51 -22 -41 -56 25 -91 21 -10 43 22 39 56 -2 17 -7 34
-11 38 -4 4 -4 -4 -1 -18 7 -24 6 -24 -8 -6 -9 10 -13 23 -10 27 7 11 6 11
-34 -6z"/>
<path d="M3035 1469 c-4 -6 -5 -12 -2 -15 2 -3 7 2 10 11 7 17 1 20 -8 4z"/>
<path d="M334 1463 c-33 -23 -21 -116 22 -174 13 -18 21 -37 17 -42 -3 -6 -2
-7 3 -4 13 8 87 -60 79 -73 -4 -6 -11 -7 -17 -4 -7 5 -8 2 -4 -5 9 -14 -21
-51 -41 -51 -7 0 -13 -5 -13 -11 0 -5 -5 -7 -12 -3 -7 4 -8 3 -4 -4 7 -11 -32
-38 -47 -34 -5 1 -6 -2 -2 -8 6 -9 -8 -14 -28 -11 -5 1 -6 -2 -3 -7 3 -5 -8
-16 -25 -26 -29 -17 -29 -17 -39 11 -27 72 -36 91 -62 131 -31 45 -40 48 -103
39 -47 -8 -23 -161 33 -211 12 -10 19 -22 17 -27 -3 -4 0 -11 6 -15 8 -5 9 -3
4 6 -6 10 -4 11 11 5 10 -5 36 -9 56 -10 41 0 38 7 68 -143 11 -60 23 -87 53
-119 25 -28 68 -30 90 -5 22 24 22 86 0 118 -32 50 -93 49 -93 -2 0 -25 24
-43 38 -29 4 4 1 10 -5 12 -18 6 -16 33 1 33 34 0 64 -59 51 -99 -5 -16 -13
-20 -38 -18 -41 3 -64 43 -83 144 -7 43 -16 87 -19 98 -4 16 10 28 78 68 45
26 97 61 116 77 18 16 38 27 44 23 5 -3 7 -1 4 4 -10 15 17 35 37 27 9 -3 15
-14 14 -22 -2 -9 2 -17 7 -17 20 -1 36 -17 31 -32 -3 -8 -2 -12 3 -9 12 8 33
-47 29 -76 -4 -34 -47 -36 -77 -4 -24 25 -21 46 5 46 12 0 12 -4 4 -20 -10
-19 -10 -20 9 -8 24 14 27 41 9 55 -16 13 -69 23 -63 12 3 -4 1 -10 -5 -14
-21 -13 -10 -57 24 -91 42 -42 86 -46 110 -9 15 23 19 98 5 89 -4 -2 -13 11
-20 29 -7 17 -30 48 -50 68 -33 32 -36 41 -43 109 -6 73 -44 178 -72 201 -8 6
-12 15 -9 18 2 4 -1 8 -8 9 -7 1 -28 4 -47 7 -19 3 -40 2 -46 -2z m104 -70
c36 -53 54 -116 44 -154 -6 -21 -11 -26 -11 -14 -1 14 -4 16 -9 7 -12 -17 -65
25 -58 45 3 8 2 11 -4 8 -13 -8 -40 48 -40 83 0 55 46 70 78 25z m-302 -278
c25 -25 64 -105 64 -131 0 -9 -12 -14 -36 -14 -24 0 -33 4 -28 12 4 7 3 8 -5
4 -6 -4 -18 -2 -26 4 -18 15 -20 34 -3 24 7 -4 8 -3 4 5 -4 6 -12 9 -17 6 -17
-11 -32 69 -17 98 12 24 35 21 64 -8z"/>
<path d="M520 1411 c0 -35 8 -43 31 -30 20 10 26 39 8 39 -5 0 -8 4 -5 8 2 4
-4 9 -15 9 -14 1 -19 -5 -19 -26z"/>
<path d="M617 1409 c-12 -16 -12 -26 -4 -50 12 -30 37 -40 37 -15 0 8 5 18 12
22 7 5 8 3 3 -6 -5 -9 -4 -11 4 -6 6 4 10 10 8 14 -31 69 -38 73 -60 41z"/>
<path d="M682 1345 c3 -4 3 -19 -2 -34 -6 -23 -4 -27 15 -29 17 -1 24 5 27 23
3 13 1 22 -3 19 -5 -3 -9 -1 -9 4 0 6 -8 13 -17 16 -10 4 -15 4 -11 1z"/>
<path d="M647 1263 c-3 -5 -8 -31 -12 -60 -5 -40 -3 -57 9 -74 12 -18 13 -26
3 -38 -11 -14 -10 -14 6 -1 17 12 20 12 28 -3 15 -26 38 -20 45 11 4 15 13 38
21 51 8 13 10 20 4 17 -7 -5 -11 2 -11 18 0 16 -12 34 -39 55 -41 33 -47 35
-54 24z"/>
<path d="M710 1251 c0 -5 5 -13 10 -16 6 -3 10 -2 10 4 0 5 -4 13 -10 16 -5 3
-10 2 -10 -4z"/>
<path d="M3086 1130 c1 -21 13 -54 27 -76 15 -20 23 -42 20 -47 -3 -6 -1 -7 5
-3 11 7 17 -6 13 -27 -1 -5 2 -6 7 -3 5 3 16 -9 26 -25 18 -30 18 -31 -9 -59
-17 -17 -25 -35 -22 -44 9 -24 24 -19 44 14 21 36 28 37 48 6 35 -53 26 -146
-13 -146 -10 0 -29 11 -41 24 -12 13 -34 26 -47 29 -14 2 -23 2 -20 -1 3 -2
-1 -11 -9 -19 -17 -17 -20 -43 -5 -43 6 0 13 7 16 15 9 24 40 18 52 -10 15
-32 16 -89 2 -80 -6 3 -7 -1 -4 -9 4 -11 0 -16 -10 -16 -9 0 -16 5 -16 12 0 6
-3 8 -7 5 -9 -9 -34 13 -27 24 3 5 1 9 -4 9 -23 0 -43 92 -22 105 17 10 11 24
-9 22 -11 0 -19 -4 -18 -7 0 -3 -5 -22 -12 -42 -14 -42 -4 -91 30 -139 10 -14
17 -28 14 -30 -6 -6 74 -1 84 5 17 11 42 77 36 96 -5 14 -2 20 10 20 32 0 65
46 65 90 0 37 2 41 20 35 29 -9 74 38 67 71 -3 19 1 27 17 34 48 18 61 47 61
136 0 46 -4 84 -9 84 -5 0 -8 -25 -7 -55 4 -79 -14 -125 -46 -125 -22 0 -24 3
-18 23 19 57 17 106 -5 142 -25 40 -50 45 -80 13 -38 -41 -16 -153 39 -202 32
-29 26 -96 -9 -96 -21 0 -43 24 -32 34 4 4 3 6 -3 4 -5 -2 -10 0 -10 4 0 4 -9
14 -20 22 -17 12 -18 17 -6 28 10 9 12 9 7 1 -4 -7 -5 -13 -2 -13 3 0 10 10
17 21 9 17 8 20 -3 14 -7 -3 -6 -1 3 7 12 10 13 17 4 35 -11 22 -12 21 -29
-14 -13 -28 -20 -33 -26 -23 -5 8 -6 18 -3 24 3 5 1 6 -5 2 -14 -8 -55 70 -46
87 4 7 4 9 -1 5 -5 -5 -16 10 -26 31 -9 22 -26 44 -36 50 -17 9 -19 6 -17 -29z
m263 -13 c17 -21 25 -74 12 -81 -6 -4 -8 -12 -5 -18 4 -7 2 -8 -4 -4 -12 7
-32 69 -32 99 0 20 13 22 29 4z"/>
<path d="M836 1142 c-3 -5 5 -19 18 -31 15 -15 26 -19 31 -12 3 6 -1 11 -10
11 -9 0 -14 4 -11 9 3 5 -1 14 -8 20 -8 7 -17 8 -20 3z"/>
<path d="M899 1047 c7 -7 14 -8 21 -1 6 6 2 10 -12 11 -16 2 -18 -1 -9 -10z"/>
<path d="M2785 890 c-3 -5 1 -10 10 -10 9 0 13 5 10 10 -3 6 -8 10 -10 10 -2
0 -7 -4 -10 -10z"/>
<path d="M945 862 c-40 -5 -55 -20 -32 -33 9 -6 14 -16 11 -22 -4 -7 -4 -9 1
-5 11 11 47 -11 39 -24 -4 -6 -3 -8 4 -4 6 3 13 2 17 -4 6 -10 45 -14 45 -5 0
3 -7 22 -15 42 -11 26 -12 33 -2 25 10 -8 13 -6 13 7 0 13 -6 17 -20 13 -11
-3 -17 -1 -13 5 6 10 2 11 -48 5z"/>
<path d="M2878 838 c-2 -6 -14 -13 -27 -15 -16 -2 -20 1 -15 9 4 7 -2 4 -14
-6 -12 -11 -20 -22 -17 -25 4 -3 9 -1 13 4 8 12 62 14 62 3 0 -4 -12 -8 -26
-8 -15 0 -32 -8 -39 -17 -12 -16 -14 -16 -30 0 -9 10 -22 14 -28 10 -8 -5 -8
-8 1 -11 7 -2 10 -8 6 -13 -4 -8 8 -13 27 -11 4 1 3 -15 -2 -36 -23 -99 -3
-246 44 -317 30 -46 110 -74 153 -54 16 8 37 31 49 54 23 47 33 171 16 188 -8
8 -11 -3 -11 -43 0 -63 -9 -102 -20 -95 -5 3 -6 -3 -4 -12 8 -31 -19 -57 -50
-49 -33 8 -79 55 -72 73 3 7 1 13 -4 13 -5 0 -19 30 -30 68 -35 118 -27 242
15 226 8 -4 12 -10 9 -15 -3 -5 0 -8 6 -7 29 7 51 -115 28 -152 -16 -26 0 -40
18 -16 23 32 18 116 -12 171 -14 27 -21 51 -17 54 5 3 1 14 -8 23 -11 10 -19
13 -21 6z"/>
<path d="M2927 779 c7 -7 15 -10 18 -7 3 3 -2 9 -12 12 -14 6 -15 5 -6 -5z"/>
<path d="M1440 660 c8 -5 20 -10 25 -10 6 0 3 5 -5 10 -8 5 -19 10 -25 10 -5
0 -3 -5 5 -10z"/>
<path d="M390 631 c0 -21 18 -31 60 -31 27 0 28 -1 17 -30 -10 -26 -9 -32 8
-45 11 -8 28 -15 38 -15 18 0 21 -5 31 -52 8 -35 41 -44 90 -24 20 8 36 17 36
20 0 3 -22 2 -50 -1 -41 -5 -51 -3 -56 11 -9 25 22 54 67 61 21 4 39 11 39 16
0 5 -4 9 -8 9 -5 0 -7 12 -5 28 2 15 0 32 -4 39 -14 20 -73 25 -146 13 -58
-10 -71 -10 -92 4 -24 16 -25 15 -25 -3z m250 -46 c0 -16 -15 -21 -23 -7 -2 4
-3 2 -1 -4 5 -22 -14 -36 -54 -41 -23 -3 -49 -3 -58 1 -15 6 -15 8 1 26 32 35
135 54 135 25z"/>
<path d="M2155 641 c-3 -5 -2 -12 3 -15 5 -3 9 1 9 9 0 17 -3 19 -12 6z"/>
<path d="M2548 623 c7 -3 16 -2 19 1 4 3 -2 6 -13 5 -11 0 -14 -3 -6 -6z"/>
<path d="M2125 609 c-6 -8 -4 -10 5 -4 10 6 12 4 6 -11 -6 -15 -5 -17 5 -6 9
9 10 15 2 23 -8 8 -13 7 -18 -2z"/>
<path d="M955 591 c-57 -4 -102 -13 -122 -24 -18 -10 -33 -15 -33 -11 0 4 -6
1 -14 -6 -8 -6 -13 -17 -10 -25 3 -7 1 -16 -5 -20 -16 -9 -14 -25 3 -25 7 0
16 9 19 19 7 28 65 61 106 61 l35 0 -22 -21 c-29 -27 -20 -41 19 -27 17 6 53
8 80 5 47 -6 49 -5 47 18 -1 13 -5 22 -9 19 -4 -2 -10 0 -14 6 -10 16 100 12
145 -6 44 -18 69 -48 47 -58 -6 -3 -3 -4 8 -3 15 1 20 -4 19 -20 0 -12 3 -20
8 -17 4 3 8 -9 8 -25 0 -34 -34 -76 -52 -65 -7 4 -8 3 -4 -4 5 -8 -5 -12 -33
-12 l-40 0 5 63 c7 81 -6 141 -31 146 -11 2 -17 0 -13 -4 4 -4 -4 -24 -17 -45
-13 -21 -22 -40 -20 -42 10 -10 16 -186 8 -223 -7 -32 -13 -39 -29 -37 -19 3
-19 3 0 -11 13 -10 16 -18 10 -30 -8 -14 -12 -15 -42 0 -17 8 -32 19 -32 24 0
5 -6 9 -13 9 -13 0 -47 32 -60 55 -3 6 12 9 39 6 51 -4 94 5 94 19 0 5 -18 15
-40 21 -21 7 -37 16 -34 21 3 5 0 7 -8 6 -7 -2 -12 4 -10 12 2 8 0 12 -4 7 -4
-4 -14 7 -22 25 l-13 33 -20 -24 c-10 -13 -19 -32 -19 -42 0 -23 -16 -25 -24
-3 -12 32 -5 61 20 85 34 32 118 35 140 5 10 -14 17 -17 24 -10 27 27 -77 69
-132 54 -17 -5 -35 -7 -41 -3 -6 3 -7 1 -3 -5 4 -7 3 -12 -3 -12 -6 0 -20 -10
-31 -22 -29 -32 -19 -80 28 -135 21 -24 51 -60 69 -81 46 -55 119 -91 196 -99
78 -7 130 8 159 48 12 15 24 27 27 25 12 -8 -1 89 -14 104 -8 8 -14 20 -15 25
-1 6 -4 12 -7 15 -4 3 -2 -2 2 -10 8 -13 7 -13 -8 -1 -18 14 -23 26 -8 17 11
-7 51 72 51 99 0 10 -10 38 -22 62 -43 86 -120 109 -323 94z m50 -41 c4 -6 -6
-10 -22 -9 -25 0 -26 1 -8 9 11 5 21 9 22 9 1 1 5 -3 8 -9z m-55 -258 c13 -12
13 -13 -3 -8 -10 3 -27 6 -38 6 -13 0 -19 7 -19 23 0 35 11 40 29 14 8 -12 22
-28 31 -35z m243 27 c21 -5 35 -14 32 -19 -3 -6 1 -7 9 -4 11 4 20 -5 31 -28
15 -30 15 -36 0 -71 -11 -27 -21 -37 -31 -33 -8 3 -13 2 -10 -3 9 -14 -21 -21
-92 -21 -47 0 -63 3 -52 10 8 5 12 10 8 10 -4 0 2 19 12 43 11 23 20 50 20 59
0 24 18 68 27 68 5 0 25 -5 46 -11z"/>
<path d="M2102 570 c-18 -29 -15 -48 4 -22 8 12 14 27 12 32 -2 6 -9 1 -16
-10z"/>
<path d="M2287 512 c-10 -10 -17 -24 -17 -31 0 -7 -4 -10 -9 -7 -5 3 -9 0 -8
-7 1 -39 -4 -71 -11 -61 -4 7 -8 -33 -9 -87 -1 -80 -5 -105 -22 -131 -24 -39
-81 -94 -94 -90 -4 1 -6 -2 -3 -7 3 -5 -9 -14 -26 -20 -28 -10 -35 -9 -45 6
-19 25 -6 80 30 130 31 44 52 59 63 42 7 -12 -15 -41 -26 -34 -5 3 -6 -4 -3
-15 6 -24 19 -26 27 -4 3 8 9 13 14 10 4 -2 8 12 7 32 0 35 -2 37 -37 40 -29
2 -43 -3 -71 -27 -19 -17 -41 -31 -48 -31 -11 0 -11 -2 1 -10 13 -8 8 -14 -11
-12 -4 1 -6 -4 -6 -11 2 -75 -24 -121 -66 -115 -28 4 -25 19 18 121 19 42 30
75 25 72 -4 -3 -10 1 -13 7 -3 10 -12 9 -36 -4 -17 -10 -38 -15 -46 -12 -8 4
-15 1 -15 -6 0 -6 5 -8 13 -4 8 5 8 2 -2 -9 -17 -21 -32 -22 -25 -2 7 17 -21
21 -31 5 -4 -6 -11 -7 -17 -4 -7 4 -8 2 -4 -5 4 -6 0 -14 -8 -17 -9 -3 -16
-14 -16 -23 0 -29 -31 -111 -40 -106 -5 3 -12 0 -16 -6 -4 -8 -3 -9 4 -5 7 4
12 3 12 -3 0 -14 -23 -19 -42 -9 -20 10 -24 58 -7 89 5 11 9 28 7 37 -3 13 -8
9 -23 -16 -11 -19 -25 -30 -33 -27 -7 2 -11 1 -8 -4 7 -12 -39 -53 -49 -44 -4
5 -5 3 -2 -3 4 -7 -1 -15 -10 -18 -20 -8 -40 9 -22 19 8 6 10 4 4 -5 -5 -9 -4
-11 3 -6 9 5 9 12 0 25 -9 15 -6 25 16 54 41 53 76 60 76 14 0 -15 3 -18 11
-10 15 15 19 63 5 60 -6 -1 -10 3 -9 8 1 6 -20 10 -47 10 -27 0 -48 -2 -47 -5
1 -3 -10 -18 -25 -33 -14 -15 -36 -48 -47 -72 -25 -52 -38 -62 -58 -42 -20 20
-32 114 -13 102 8 -5 11 -4 7 1 -3 5 3 39 13 76 22 79 35 188 25 217 -9 29
-40 26 -63 -6 -40 -57 -52 -149 -32 -252 10 -54 -1 -98 -20 -86 -6 3 -7 -1 -4
-9 4 -11 0 -16 -15 -16 -25 0 -28 -18 -4 -27 10 -4 24 3 38 19 l22 25 12 -34
c14 -38 46 -56 74 -41 14 7 24 5 36 -6 23 -20 44 -20 84 1 18 9 35 16 39 15 4
-1 5 5 2 13 -4 8 -1 15 5 15 6 0 11 -6 11 -14 0 -8 14 -26 31 -40 22 -19 35
-24 47 -17 24 13 47 40 67 81 23 47 55 81 69 73 6 -3 8 -3 4 2 -8 8 20 33 59
53 20 11 21 11 10 -18 -6 -16 -13 -27 -16 -25 -4 2 -7 -7 -8 -18 0 -12 -7 -41
-14 -64 -21 -68 14 -92 78 -54 31 19 31 19 49 0 17 -19 62 -24 96 -11 10 4 40
29 67 55 l50 49 -6 -51 c-9 -80 13 -62 28 22 10 60 19 79 52 117 52 60 68 69
57 33 -4 -16 -11 -35 -14 -43 -5 -13 -15 -90 -12 -90 1 0 16 -4 34 -9 20 -6
30 -6 27 0 -4 5 -1 10 4 10 6 1 15 2 20 3 5 0 13 5 18 10 5 5 3 6 -4 2 -19
-11 -16 5 4 19 14 10 20 9 36 -5 18 -17 71 -34 62 -21 -2 4 9 12 24 19 31 14
66 78 58 108 -4 17 -6 17 -12 -3 -4 -13 -11 -20 -16 -17 -5 3 -6 -1 -3 -9 3
-8 0 -18 -7 -23 -8 -5 -10 -3 -4 6 5 9 4 11 -4 6 -6 -4 -9 -11 -6 -16 7 -11
-24 -42 -38 -37 -6 2 -15 11 -21 20 -8 13 -7 20 4 27 8 5 18 6 22 4 5 -3 7 -2
6 3 -4 15 23 54 34 47 6 -4 8 -3 5 3 -4 6 -2 25 4 43 8 21 8 35 1 42 -12 12
-84 29 -77 18 3 -4 -2 -11 -11 -14 -23 -9 -57 -93 -52 -133 4 -29 -1 -39 -29
-64 -58 -51 -63 -41 -34 66 21 76 16 99 -19 77 -25 -15 -33 -15 -24 0 4 7 3 8
-5 4 -6 -4 -9 -12 -6 -17 4 -5 1 -9 -5 -9 -6 0 -9 -4 -6 -9 3 -4 -6 -19 -20
-32 l-25 -23 30 69 c46 111 64 181 51 205 -13 25 -32 26 -53 2z m9 -122 c-27
-70 -33 -62 -14 19 6 28 16 48 21 44 6 -3 7 -1 4 5 -4 5 -4 18 0 29 7 15 8 15
11 -7 2 -14 -8 -54 -22 -90z m-874 52 c-5 -1 -7 -17 -5 -35 2 -17 -6 -63 -17
-102 l-20 -70 6 70 c5 75 6 83 18 134 6 24 11 30 17 20 4 -8 5 -15 1 -17z
m1128 -100 c0 -21 -47 -92 -61 -92 -6 0 -8 9 -5 20 3 11 9 30 12 43 13 44 54
67 54 29z"/>
<path d="M2515 340 c-3 -5 -1 -10 4 -10 6 0 11 5 11 10 0 6 -2 10 -4 10 -3 0
-8 -4 -11 -10z"/>
<path d="M1735 490 c3 -5 10 -10 16 -10 5 0 9 5 9 10 0 6 -7 10 -16 10 -8 0
-12 -4 -9 -10z"/>
<path d="M2169 153 c-13 -16 -12 -17 4 -4 16 13 21 21 13 21 -2 0 -10 -8 -17
-17z"/>
</g>
</svg>
